<?xml version="1.0" encoding="UTF-8"?>
<svg width="24px" height="24px" viewBox="0 0 24 24" version="1.1" xmlns="http://www.w3.org/2000/svg" xmlns:xlink="http://www.w3.org/1999/xlink">
    <!-- Generator: Sketch 55.1 (78136) - https://sketchapp.com -->
    <title>_Guidelines/Iconography/Primary/Status/Error</title>
    <desc>Created with Sketch.</desc>
    <defs>
        <path d="M22.8343031,19.4926272 C23.1080946,19.9669056 23.1080946,20.5312704 22.8343031,21.0046656 C22.5622781,21.478944 22.0721031,21.761568 21.5254033,21.761568 L2.47393425,21.761568 C1.92811774,21.761568 1.43794272,21.478944 1.16503447,21.0046656 C0.892126216,20.5312704 0.892126216,19.9669056 1.16503447,19.4926272 L10.6912106,2.9944512 C10.9641189,2.521056 11.4534107,2.238432 11.9992272,2.238432 L12.0001104,2.238432 C12.5459269,2.238432 13.0361019,2.521056 13.3090102,2.993568 L22.8343031,19.4926272 Z M21.7117582,20.3563968 C21.7356045,20.3166528 21.7665165,20.2353984 21.7117582,20.1417792 L12.1865535,3.64272 C12.0788034,3.4563648 11.9224773,3.4563648 11.8138439,3.64272 L2.28855094,20.1417792 C2.23379265,20.2353984 2.26470459,20.3166528 2.28855094,20.35728 C2.3115141,20.397024 2.36627239,20.4650304 2.47402257,20.4650304 L21.5254917,20.4650304 C21.6332419,20.4650304 21.6897665,20.397024 21.7118465,20.3563968 L21.7117582,20.3563968 Z M12.0001104,16.4346355 C11.6421831,16.4343919 11.3520865,16.1442948 11.3518429,15.7863667 L11.3518429,8.50084992 C11.3518429,8.14315392 11.6424151,7.85258112 12.0001104,7.85258112 C12.3578057,7.85258112 12.6483779,8.14315392 12.6483779,8.50084992 L12.6483779,15.7863667 C12.6483779,16.1440627 12.3578057,16.4346355 12.0001104,16.4346355 L12.0001104,16.4346355 Z M12.0001104,17.3592576 C12.4593735,17.3592576 12.8311999,17.7310848 12.8311999,18.1894656 C12.8311999,18.6496128 12.4593735,19.02144 12.0001104,19.02144 C11.5408473,19.02144 11.1690209,18.6496128 11.1690209,18.1894656 C11.1690209,17.7310848 11.5408473,17.3592576 12.0001104,17.3592576 Z" id="path-1"></path>
    </defs>
    <g id="_Guidelines/Iconography/Primary/Status/Error" stroke="none" stroke-width="1" fill="none" fill-rule="evenodd">
        <mask id="mask-2" fill="white">
            <use xlink:href="#path-1"></use>
        </mask>
        <use id="Color" fill="#051C2C" xlink:href="#path-1"></use>
    </g>
</svg>