<?xml version="1.0" encoding="UTF-8"?>
<svg width="22px" height="23px" viewBox="0 0 22 23" version="1.1" xmlns="http://www.w3.org/2000/svg" xmlns:xlink="http://www.w3.org/1999/xlink">
    <!-- Generator: Sketch 55.1 (78136) - https://sketchapp.com -->
    <title>Icon</title>
    <desc>Created with Sketch.</desc>
    <defs>
        <path d="M12.0004416,1.0156416 C18.056544,1.0156416 22.9848,5.9430144 22.9848,12 C22.9848,18.0569856 18.056544,22.9843584 12.0004416,22.9843584 C5.943456,22.9843584 1.0152,18.0569856 1.0152,12 C1.0152,5.9430144 5.943456,1.0156416 12.0004416,1.0156416 Z M12.0004416,21.6595584 C17.3261376,21.6595584 21.66,17.3265792 21.66,12 C21.66,6.6734208 17.3261376,2.3404416 12.0004416,2.3404416 C6.6738624,2.3404416 2.34,6.6734208 2.34,12 C2.34,17.3265792 6.6738624,21.6595584 12.0004416,21.6595584 Z M14.534519,15.8609088 C14.9001638,15.8609088 15.196919,16.1567808 15.196919,16.5233088 C15.196919,16.8889536 14.9001638,17.1857088 14.534519,17.1857088 L9.46583424,17.1857088 C9.10018944,17.1857088 8.80343424,16.8889536 8.80343424,16.5233088 C8.80343424,16.1567808 9.10018944,15.8609088 9.46583424,15.8609088 L11.337335,15.8609088 L11.337335,10.2879168 L10.1282342,10.2879168 C9.76258944,10.2879168 9.46583424,9.9911616 9.46583424,9.6255168 C9.46583424,9.259872 9.76258944,8.9631168 10.1282342,8.9631168 L12.6630182,8.9631168 L12.6630182,15.8609088 L14.534519,15.8609088 Z M11.3251469,7.2324864 C10.9413061,7.23238889 10.630166,6.9212488 10.6300685,6.537408 L10.6300685,5.8953216 C10.6300685,5.5111296 10.9409549,5.2002432 11.3251469,5.2002432 L11.9672333,5.2002432 C12.3514253,5.2002432 12.6631949,5.5111296 12.6631949,5.8953216 L12.6631949,6.537408 C12.6631949,6.9207168 12.3514253,7.2324864 11.9672333,7.2324864 L11.3251469,7.2324864 Z" id="path-1"></path>
    </defs>
    <g id="Symbols" stroke="none" stroke-width="1" fill="none" fill-rule="evenodd">
        <g id="Header-(Global-header)" transform="translate(-1329.000000, -25.000000)">
            <g id="_Guidelines/Iconography/Primary/Info-circle">
                <g transform="translate(1328.000000, 24.102428)">
                    <mask id="mask-2" fill="white">
                        <use xlink:href="#path-1"></use>
                    </mask>
                    <use id="Color" fill="#051C2C" fill-rule="evenodd" xlink:href="#path-1"></use>
                </g>
            </g>
        </g>
    </g>
</svg>