<?xml version="1.0" encoding="UTF-8"?>
<svg width="24px" height="24px" viewBox="0 0 24 24" version="1.1" xmlns="http://www.w3.org/2000/svg" xmlns:xlink="http://www.w3.org/1999/xlink">
    <!-- Generator: Sketch 55.1 (78136) - https://sketchapp.com -->
    <title>_Guidelines/Iconography/Primary/View/Minimize</title>
    <desc>Created with Sketch.</desc>
    <defs>
        <path d="M22.7641133,1.28435539 C23.1319622,1.65353299 23.1319622,2.25234257 22.7641133,2.62152017 L15.4115348,10.0015392 L18.4361682,10.000656 L18.4361682,11.325456 L14.2085456,11.3263392 C13.7834953,11.325456 13.398926,11.1514656 13.1199592,10.8714912 C12.8418724,10.5915168 12.6685082,10.2064416 12.6676282,9.78162244 L12.6685082,5.53696332 L13.9885403,5.53696332 L13.9876603,8.75357766 L21.4308809,1.28347219 C21.7987299,0.914294599 22.3962644,0.915177799 22.7641133,1.28435539 Z M9.79145439,12.6736608 C10.2156247,12.674544 10.601074,12.8485344 10.8800408,13.1285088 C11.1590076,13.4084832 11.3314918,13.7944416 11.3323718,14.2183776 L11.3314918,18.4630367 L10.0114597,18.4630367 L10.0123397,15.2464223 L2.56911906,22.7165278 C2.20127013,23.0857054 1.60373563,23.0848222 1.2358867,22.7156446 C0.868037768,22.346467 0.868037768,21.7476574 1.2358867,21.3784798 L8.58934521,13.9984608 L5.56383176,13.999344 L5.56383176,12.674544 L9.79145439,12.6736608 L9.79145439,12.6736608 Z" id="path-1"></path>
    </defs>
    <g id="_Guidelines/Iconography/Primary/View/Minimize" stroke="none" stroke-width="1" fill="none" fill-rule="evenodd">
        <mask id="mask-2" fill="white">
            <use xlink:href="#path-1"></use>
        </mask>
        <use id="Color" fill="#051C2C" xlink:href="#path-1"></use>
    </g>
</svg>