<svg xmlns="http://www.w3.org/2000/svg" viewBox="0 0 512 512">
  <path d="M480.4 494.7H466V43c0-4.6-4-8.5-8.7-8.5h-161c-4.8 0-8.7 4-8.7 8.6v38h-17.2V43c0-4.6-4-8.5-8.6-8.5h-37.4v-26c0-4.6-4-8.5-8.7-8.5S207 4 207 8.6v26h-37.3c-4.8 0-8.6 3.8-8.6 8.5v38h-25c-4.2 0-8 4-8 9v72H55c-4.8 0-8.7 4-8.7 9v325H31.7c-4.7 0-8.6 4-8.6 8.7s4 8.6 9 8.6h449c5 0 9-4 9-8.5s-4-8.7-8.2-8.7zm-302-443H253v28.8h-74.7V51.8zm-28.8 443h-5.8v-14.3c0-4.8-3.8-8.7-8.6-8.7s-8.6 4-8.6 8.7v14.3h-5.8V466h28.8v28.7zM207 273.3v221.5h-40v-37.4c0-4.7-3.8-8.6-8.6-8.6h-46c-4.8 0-8.6 4-8.6 8.6v37.4H63.3V178.3H207v95zm8.7-112.2h-72V98h144v166.8h-63.3V236h25.8c4.8 0 8.7-4 8.7-8.8s-4-8.6-9-8.6h-26v-28.8h26c5 0 8-3.8 8-8.6s-4-8.6-9-8.6h-26v-3c0-4.7-4-8.5-8.6-8.5zm152.5 334H224.4V282h143.8v212.7zm80.5 0h-63.3V262c0-4.8-3.8-8.7-8.6-8.7s-8.6 4-8.6 9v2.7H351v-3c0-5-4-8.8-8.7-8.8s-8.6 4-8.6 8.8v2.8H305v-213h143.7v443z"/>
  <path d="M261.8 477.5c4.7 0 8.6-4 8.6-8.6V307c0-4.8-4-8.7-8.6-8.7s-8.7 4-8.7 8.7v161c0 4.8 4 8.7 9 8.7zm34.5 0c4.7 0 8.6-4 8.6-8.6V307c0-4.8-4-8.7-9-8.7s-9 4-9 8.7v161c0 4.8 4 8.7 8 8.7zm34.5 0c4.8 0 8.6-4 8.6-8.6V307c0-4.8-3.8-8.7-8.6-8.7s-8.6 4-8.6 8.7v161c0 4.8 3.8 8.7 8.6 8.7zm11.5-368.2c4.8 0 8.6-4 8.6-8.6V89.2c0-4.8-4-8.7-9-8.7s-9 4-9 8.7v11.5c0 4.7 4 8.6 8 8.6zm34.5 0c4.8 0 8.6-4 8.6-8.6V89.2c0-4.8-3.8-8.7-8.6-8.7s-8.6 4-8.6 8.7v11.5c0 4.7 3.8 8.6 8.6 8.6zm34.5 0c4.8 0 8.7-4 8.7-8.6V89.2c0-4.8-4-8.7-8.7-8.7s-8.6 4-8.6 8.7v11.5c0 4.7 4 8.6 8.6 8.6zm-69 57.5c4.8 0 8.6-3.8 8.6-8.6v-11.5c0-4.8-4-8.6-9-8.6s-9 4-9 9v12c0 5 4 9 8 9zm34.5 0c4.8 0 8.6-3.8 8.6-8.6v-11.5c0-4.8-3.8-8.6-8.6-8.6s-8.6 4-8.6 9v12c0 5 3.8 9 8.6 9zm34.5 0c4.8 0 8.7-3.8 8.7-8.6v-11.5c0-4.8-4-8.6-8.7-8.6s-8.6 4-8.6 9v12c0 5 4 9 8.6 9zm-69 57.6c4.8 0 8.6-4 8.6-8.7v-11.5c0-4.7-4-8.6-9-8.6s-9 4-9 8.6v11.5c0 4.8 4 8.7 8 8.7zm34.5 0c4.8 0 8.6-4 8.6-8.7v-11.5c0-4.7-3.8-8.6-8.6-8.6s-8.6 4-8.6 8.6v11.5c0 4.8 3.8 8.7 8.6 8.7zm34.5 0c4.8 0 8.7-4 8.7-8.7v-11.5c0-4.7-4-8.6-8.7-8.6s-8.6 4-8.6 8.6v11.5c0 4.8 4 8.7 8.6 8.7zm-310.6 23c4.7 0 8.6-4 8.6-8.7v-11.5c0-4.7-4-8.6-8.6-8.6s-8.7 4-8.7 8.6v11.5c0 4.8 4 8.7 8.7 8.7zm34.5 0c4.8 0 8.6-4 8.6-8.7v-11.5c0-4.7-3.8-8.6-8.6-8.6s-8.6 4-8.6 8.6v11.5c0 4.8 3.8 8.7 8.6 8.7zm34.5 0c4.8 0 8.6-4 8.6-8.7v-11.5c0-4.7-3.8-8.6-8.6-8.6s-8.6 4-8.6 8.6v11.5c0 4.8 4 8.7 9 8.7zm-69 57.6c4.7 0 8.6-4 8.6-8.7v-11.5c0-4.8-4-8.7-8.6-8.7s-8.7 4-8.7 9v12c0 5 4 9 8.7 9zm34.5 0c4.8 0 8.6-4 8.6-8.7v-11.5c0-4.8-3.8-8.7-8.6-8.7s-8.6 4-8.6 9v12c0 5 3.8 9 8.6 9zm34.5 0c4.8 0 8.6-4 8.6-8.7v-11.5c0-4.8-3.8-8.7-8.6-8.7s-8.6 4-8.6 9v12c0 5 4 9 9 9zm-69 57.4c4.7 0 8.6-3.8 8.6-8.6v-11.5c0-4.8-4-8.6-8.6-8.6s-8.7 3.8-8.7 8.6v11.5c0 4.8 4 8.6 8.7 8.6zm34.5 0c4.8 0 8.6-3.8 8.6-8.6v-11.5c0-4.8-3.8-8.6-8.6-8.6s-8.6 3.8-8.6 8.6v11.5c0 4.8 3.8 8.6 8.6 8.6zm34.5 0c4.8 0 8.6-3.8 8.6-8.6v-11.5c0-4.8-3.8-8.6-8.6-8.6s-8.6 3.8-8.6 8.6v11.5c0 4.8 4 8.6 9 8.6zm-69 57.6c4.7 0 8.6-4 8.6-8.7v-11.5c0-4.7-4-8.6-8.6-8.6s-8.7 4-8.7 8.6v11.5c0 4.8 4 8.7 8.7 8.7zm34.5 0c4.8 0 8.6-4 8.6-8.7v-11.5c0-4.7-3.8-8.6-8.6-8.6s-8.6 4-8.6 8.6v11.5c0 4.8 3.8 8.7 8.6 8.7zm34.5 0c4.8 0 8.6-4 8.6-8.7v-11.5c0-4.7-3.8-8.6-8.6-8.6s-8.6 4-8.6 8.6v11.5c0 4.8 4 8.7 9 8.7zm241.6-138c4.8 0 8.7-4 8.7-8.7v-11.5c0-4.8-4-8.7-8.7-8.7s-8.6 4-8.6 9v12c0 5 4 9 8.6 9zm0 57.4c4.8 0 8.7-3.8 8.7-8.6v-11.5c0-4.8-4-8.6-8.7-8.6s-8.6 3.8-8.6 8.6v11.5c0 4.8 4 8.6 8.6 8.6zm0 57.6c4.8 0 8.7-4 8.7-8.7v-11.5c0-4.8-4-8.6-8.7-8.6s-8.6 3.8-8.6 8.6v11.5c0 4.8 4 8.6 8.6 8.6zm0 57.5c4.8 0 8.7-4 8.7-8.7v-11.5c0-4.7-4-8.6-8.7-8.6s-8.6 4-8.6 8.6v11.5c0 4.8 4 8.7 8.6 8.7zM259 135.2c0-4.8-4-8.6-8.8-8.6h-69c-4.8 0-8.6 3.8-8.6 8.6s3.8 8.6 8.6 8.6h69c4.8 0 8.7-3.8 8.7-8.6z"/>
</svg>