<?xml version="1.0" encoding="UTF-8"?>
<svg width="92px" height="40px" viewBox="0 0 92 40" version="1.1" xmlns="http://www.w3.org/2000/svg" xmlns:xlink="http://www.w3.org/1999/xlink">
    <!-- Generator: Sketch 55.1 (78136) - https://sketchapp.com -->
    <title>Solution logo</title>
    <desc>Created with Sketch.</desc>
    <g id="Symbols" stroke="none" stroke-width="1" fill="none" fill-rule="evenodd">
        <g id="Header-(Global-header)" transform="translate(-24.000000, -16.000000)" fill="#051C2C">
            <g id="_Guidelines/Logos/Solution-name---Small">
                <g transform="translate(8.000000, 0.000000)">
                    <g id="Group" transform="translate(16.000000, 12.000000)">
                        <path d="M24.4797582,33.7066545 C26.0163355,33.7066545 26.9117094,34.9240642 26.8077305,36.9005647 C26.8077305,38.8054529 25.707287,40.252022 24.1707097,40.252022 C23.0702662,40.252022 22.5590366,39.7450067 22.1229028,39.0088319 L21.1004435,40.1775452 L21.0224593,40.1775452 L21.0224593,31.6757287 C21.0224593,31.4494337 20.5892138,31.0168952 20.3581496,31.0168952 L20,31.0168952 L20,30.5843567 L22.200887,30 L22.200887,35.1532237 C22.715005,34.139193 23.4572989,33.7066545 24.4797582,33.7066545 Z M25.7332818,37.8945439 C25.8112659,37.3359677 25.8112659,36.5997929 25.6350794,36.0154362 C25.5570953,35.0758824 24.9678814,34.4170489 24.0985022,34.4170489 C23.0731546,34.4170489 22.4839407,35.1532237 22.2037753,36.0927776 L22.2037753,37.5393468 C22.2037753,38.6307188 22.9460692,39.5702726 23.9685285,39.5702726 C25.068972,39.5702726 25.5802017,38.8340978 25.7332818,37.8945439 Z M30.9293391,34.3425721 L30.9293391,34.3397076 L30.9004561,34.3397076 L30.9004561,33.9845104 L33.3815085,33.9845104 L33.3815085,34.4170489 L33.1013431,34.4170489 C32.948263,34.4170489 32.5121292,34.8467229 32.3590492,35.0758824 L30.2361464,39.7965676 L28.6995691,43.1967213 L28.1103552,42.9188654 L29.8000126,39.5674081 L27.6771098,35.0758824 C27.6251203,34.8467229 27.0359065,34.3397076 26.8828264,34.3397076 L26.602661,34.3397076 L26.602661,33.8326922 L29.9039915,33.8326922 L29.9039915,34.2652307 L29.5458419,34.2652307 C29.3147777,34.2652307 28.9566281,34.6949048 28.9566281,34.9240642 L30.4152212,38.2755216 L31.7987184,35.0014056 C31.8767026,34.7751106 31.4405688,34.3425721 31.2874887,34.3425721 L30.9293391,34.3425721 Z M42.933127,37.6911649 L46.0784891,30.5614407 L48.5364351,30.5614407 L48.5364351,30.9939792 L48.1003013,30.9939792 C47.9472213,30.9939792 47.3580074,31.5009946 47.3580074,31.730154 L47.3580074,38.8369623 C47.3580074,39.0661218 47.9472213,39.5731371 48.1003013,39.5731371 L48.5364351,39.5731371 L48.5364351,40.0285916 L44.7989708,40.0285916 L44.7989708,39.596053 L45.2351046,39.596053 C45.3881847,39.596053 45.9773985,39.0890377 45.9773985,38.8598782 L45.9773985,31.8791077 L42.4709985,40.1546293 L39.0425827,31.7272895 L39.0425827,38.7825369 C39.0425827,39.0116964 39.6317965,39.5187117 39.7848766,39.5187117 L40.2210104,39.5187117 L40.2210104,39.9512502 L37.22584,39.9512502 L37.22584,39.5187117 L37.6619738,39.5187117 C37.8150538,39.5187117 38.4042677,39.0116964 38.4042677,38.7825369 L38.4042677,31.6757287 C38.4042677,31.4465692 37.8150538,30.9395539 37.6619738,30.9395539 L37.22584,30.9395539 L37.22584,30.5070153 L40.0159408,30.5070153 L42.933127,37.6911649 Z M51.8637603,39.0632573 C52.9642038,39.0632573 53.4263324,38.7080601 53.7787053,38.0234461 L54.1368549,38.0234461 C53.7527106,39.3439776 52.8833314,40.2061902 51.3467541,40.2061902 C49.5820009,40.2061902 48.4815574,38.759621 48.4815574,37.0094155 C48.4815574,35.0300505 49.7870704,33.7352995 51.4767277,33.7352995 C52.4240912,33.7352995 53.0884009,34.0131553 53.6776147,34.597512 L52.8082355,35.9667399 L52.4500859,35.9667399 C52.6811501,35.0014056 52.4500859,34.139193 51.4276266,34.139193 C50.174103,34.139193 49.5848892,35.0787469 49.5848892,36.5253161 C49.5848892,37.8945439 50.4802631,39.0632573 51.8637603,39.0632573 Z M65.1210718,32.386123 C64.6098421,32.386123 64.3267884,32.1082672 64.3267884,31.5983873 C64.3267884,31.0885075 64.684938,30.8106516 65.1210718,30.8106516 C65.5572056,30.8106516 65.9153552,31.091372 65.9153552,31.5983873 C65.9153552,32.1082672 65.5572056,32.386123 65.1210718,32.386123 Z M73.2603101,38.9085746 C73.2603101,39.0632573 73.7715397,39.5702726 73.9246198,39.5158472 L74.2827694,39.5158472 L74.2827694,39.9483857 L71.134519,39.9483857 L71.134519,39.5158472 L71.4926686,39.5158472 C71.6486369,39.5158472 72.1598666,39.0861732 72.1598666,38.8570137 L72.1598666,35.45686 C72.1598666,34.8753678 71.801717,34.4428293 71.1374073,34.4428293 C70.268028,34.4428293 69.0896003,35.3050419 69.0896003,35.7375804 L69.0896003,38.9114391 C69.0896003,39.1377341 69.60083,39.5702726 69.7539101,39.5702726 L70.1120596,39.5702726 L70.1120596,40.0028111 L66.8107291,40.0028111 L63.5353934,40.0028111 L61.1814263,40.0028111 L57.8800958,35.2821259 L56.9327324,36.2961566 L56.9327324,38.8340978 C56.9327324,39.0632573 57.5219462,39.5702726 57.6750263,39.5702726 L58.1111601,39.5702726 L58.1111601,40.0028111 L54.3996905,40.0028111 L54.3996905,39.5702726 L54.8358243,39.5702726 C54.9889044,39.5702726 55.5781182,39.0632573 55.5781182,38.8340978 L55.5781182,31.7272895 C55.5781182,31.4981301 54.9889044,30.9911147 54.8358243,30.9911147 L54.3996905,30.9911147 L54.3996905,30.5585762 L58.1371548,30.5585762 L58.1371548,30.9911147 L57.701021,30.9911147 C57.5479409,30.9911147 56.9587271,31.4981301 56.9587271,31.7272895 L56.9587271,35.5857622 L60.3871429,31.8046309 C60.540223,31.6757287 59.9510092,31.0168952 59.7979291,31.0168952 L59.3617953,31.0168952 L59.3617953,30.5843567 L62.7902112,30.5843567 L62.7902112,31.0168952 L62.3540774,31.0168952 C62.1259014,31.0168952 61.2536339,31.7272895 61.1005538,31.8791077 L58.7465868,34.3425721 L62.1259014,38.6307188 C62.3540774,38.8340978 63.0703766,39.4184545 63.3014408,39.4184545 L63.5844945,39.4184545 L63.9426441,39.4184545 C64.0957242,39.4184545 64.6069538,38.9887804 64.6069538,38.759621 L64.6069538,34.8495874 C64.6069538,34.6232924 64.0957242,34.1907539 63.9426441,34.1907539 L63.5844945,34.1907539 L63.5844945,33.7582154 L65.8633657,33.7582154 L65.8633657,38.8340978 C65.8633657,39.0603928 66.3745954,39.4929313 66.5276754,39.4929313 L66.885825,39.4929313 L67.2439746,39.4929313 C67.3970547,39.4929313 67.9082843,39.0632573 67.9082843,38.8340978 L67.9082843,34.9240642 C67.9082843,34.6977693 67.3970547,34.2652307 67.2439746,34.2652307 L66.885825,34.2652307 L66.885825,33.8326922 L68.8556478,33.8326922 L69.086712,35.1274433 C69.8030112,34.4170489 70.3922251,33.7582154 71.4926686,33.7582154 C72.5180162,33.7582154 73.2603101,34.4943902 73.2603101,35.5084209 L73.2603101,38.9085746 Z M77.7891694,36.4479747 C78.4563674,36.7516111 79.2477625,37.2614909 79.1697783,38.2182317 C79.1697783,39.3611646 78.3783833,40.0973394 77.1999556,40.0973394 C76.3796775,40.0973394 75.8684478,39.7421422 75.3572182,39.7421422 C75.1521486,39.7421422 75.0741645,39.8194835 74.9210844,39.9713017 L74.640919,39.9713017 L74.640919,37.7885577 L74.9990686,37.7885577 L74.9990686,37.865899 C74.9990686,38.4502557 75.8944426,39.6934458 77.1999556,39.6934458 C77.9422495,39.6934458 78.3783833,39.41559 78.3783833,38.8312333 C78.3783833,38.0950585 77.7891694,37.8916794 77.1999556,37.66252 C76.7638218,37.4333605 76.4056722,37.3073228 75.8944426,37.0781633 C75.1781434,36.6971857 74.5889295,36.2646472 74.5889295,35.4024346 C74.5889295,34.3110626 75.3052287,33.6522291 76.4836564,33.6522291 C77.1508544,33.6522291 77.5840999,33.9329495 78.0202337,33.9329495 C78.2253032,33.9329495 78.3003991,33.9329495 78.3783833,33.7811314 L78.7365329,33.7811314 L78.7365329,35.6602391 L78.3783833,35.6602391 C78.3783833,35.1532237 77.6620841,34.0618517 76.4836564,34.0618517 C75.7413625,34.0618517 75.4611971,34.3425721 75.4611971,34.8495874 C75.4611971,35.4310796 75.8944426,35.5857622 76.4836564,35.8636181 C76.9197902,36.0927776 77.2779398,36.2188153 77.7891694,36.4479747 Z M82.9332373,39.0632573 C83.958585,39.0632573 84.4698146,38.6307188 84.9001718,38.069278 L85.2583214,38.069278 C84.8250759,39.3898095 84.082782,40.252022 82.5462047,40.252022 C80.8565474,40.252022 79.6781197,38.7281115 79.6781197,36.977906 C79.6781197,35.0758824 80.9345316,33.70379 82.5462047,33.70379 C83.9556966,33.70379 84.7470917,34.7178207 84.8250759,35.886534 L84.8250759,36.3190725 L80.6543661,36.5997929 C80.6543661,37.8200671 81.5497401,39.0632573 82.9332373,39.0632573 Z M82.4739971,34.2136699 C81.1684841,34.2136699 80.6572544,35.230565 80.5792703,36.2445957 L83.7275207,35.9638754 C83.854606,35.0758824 83.7275207,34.2136699 82.4739971,34.2136699 Z M89.0766581,33.8326922 L89.0737698,33.8326922 L89.0737698,33.9845104 L91.5317158,33.9845104 L91.5317158,34.3912685 L91.2515504,34.3912685 C91.0984703,34.3912685 90.6623366,34.8209425 90.5092565,35.0501019 L88.3863537,39.7707871 L86.8497764,43.1709409 L86.2605626,42.893085 L87.9502199,39.4929313 L85.8273171,35.0014056 C85.7753276,34.7722461 85.1861138,34.2652307 85.0330337,34.2652307 L84.74998,34.2652307 L84.74998,33.8326922 L88.0513105,33.8326922 L88.0513105,34.2652307 L87.6931609,34.2652307 C87.4620967,34.2652307 87.1039471,34.6949048 87.1039471,34.9240642 L88.5625402,38.1981802 L89.9460374,34.9240642 C89.9460374,34.6977693 89.5878878,34.2652307 89.4348077,34.2652307 L89.0766581,34.2652307 L89.0766581,33.8326922 Z" id="Scriptmark"></path>
                        <text id="Solution-Name" font-family="LarishMcKinseyRegular, Larish McKinsey Regular" font-size="20.5" font-weight="normal" line-spacing="24" letter-spacing="0.41">
                            <tspan x="0" y="20">STAGE</tspan>
                        </text>
                    </g>
                </g>
            </g>
        </g>
    </g>
</svg>
