<?xml version="1.0" encoding="UTF-8"?>
<svg width="24px" height="24px" viewBox="0 0 24 24" version="1.1" xmlns="http://www.w3.org/2000/svg" xmlns:xlink="http://www.w3.org/1999/xlink">
    <!-- Generator: Sketch 55.1 (78136) - https://sketchapp.com -->
    <title>_Guidelines/Iconography/Primary/Status/Warning</title>
    <desc>Created with Sketch.</desc>
    <defs>
        <path d="M12.4441234,12.2928691 L12.4441234,16.9128883 L13.6982643,16.9128883 C13.9429101,16.9128883 14.1416297,17.1116083 14.1416297,17.3562547 C14.1416297,17.6026675 13.9429101,17.8005043 13.6982643,17.8005043 L10.3023686,17.8005043 C10.1846204,17.8005043 10.071701,17.7537027 9.98852333,17.6703591 C9.90534567,17.5870156 9.85874523,17.4740029 9.85900224,17.3562547 C9.85900224,17.1116083 10.0577228,16.9128883 10.3023686,16.9128883 L11.5565096,16.9128883 L11.5565096,13.1804851 L10.7466171,13.1804851 C10.5019713,13.1804851 10.3023686,12.9817651 10.3023686,12.7371187 C10.3023686,12.4924723 10.5019713,12.2928691 10.7466171,12.2928691 L12.4441234,12.2928691 L12.4441234,12.2928691 Z M11.5488257,9.77265792 L11.9780599,9.77265792 C12.2350705,9.77265792 12.4443884,9.98109312 12.4443884,10.2381043 L12.4443884,10.6682227 C12.4443884,10.9252339 12.2350705,11.1336694 11.9780599,11.1336694 L11.5488257,11.1336694 C11.4253389,11.13381 11.3068692,11.0848172 11.2195507,10.9974985 C11.1322323,10.9101799 11.0832396,10.7917099 11.0833802,10.6682227 L11.0833802,10.2381043 C11.0833802,9.98109312 11.290932,9.77265792 11.5488257,9.77265792 L11.5488257,9.77265792 Z M2.82468572,20.2658688 L12.0011114,4.3726848 L21.1757706,20.2658688 L2.82468572,20.2658688 L2.82468572,20.2658688 Z M22.8971232,20.5970688 L12.5743951,2.7166848 C12.3376981,2.30688 11.6638181,2.30688 11.4271211,2.7166848 L1.10421632,20.5970688 C0.984971744,20.801769 0.984971744,21.0547686 1.10421632,21.2594688 C1.22256483,21.4643712 1.4407147,21.5906688 1.67741172,21.5906688 L22.3230446,21.5906688 C22.5597416,21.5906688 22.7787747,21.4643712 22.8971232,21.2594688 C23.0145817,21.0542899 23.0145817,20.8022477 22.8971232,20.5970688 Z" id="path-1"></path>
    </defs>
    <g id="_Guidelines/Iconography/Primary/Status/Warning" stroke="none" stroke-width="1" fill="none" fill-rule="evenodd">
        <mask id="mask-2" fill="white">
            <use xlink:href="#path-1"></use>
        </mask>
        <use id="Color" fill="#051C2C" xlink:href="#path-1"></use>
    </g>
</svg>