<svg xmlns="http://www.w3.org/2000/svg" xmlns:xlink="http://www.w3.org/1999/xlink" width="24" height="24" viewBox="0 0 24 24">
    <defs>
        <path id="a" d="M12.444 12.293v4.62h1.254a.444.444 0 0 1 0 .888h-3.396a.443.443 0 1 1 0-.888h1.255V13.18h-.81a.444.444 0 0 1 0-.887h1.697zm-.895-2.52h.43c.256 0 .465.208.465.465v.43c0 .257-.209.466-.466.466h-.43a.465.465 0 0 1-.465-.466v-.43c0-.257.208-.465.466-.465zM2.825 20.266L12 4.373l9.175 15.893H2.825zm20.072.331L12.574 2.717c-.236-.41-.91-.41-1.147 0L1.104 20.597a.662.662 0 1 0 .573.994h20.646a.663.663 0 0 0 .574-.994z"/>
    </defs>
    <use fill="#e5546c" fill-rule="evenodd" xlink:href="#a"/>
</svg>
